<?xml version="1.0" standalone="no"?>
<!DOCTYPE svg PUBLIC "-//W3C//DTD SVG 20010904//EN"
 "http://www.w3.org/TR/2001/REC-SVG-20010904/DTD/svg10.dtd">
<svg version="1.0" xmlns="http://www.w3.org/2000/svg"
 width="512.000000pt" height="512.000000pt" viewBox="0 0 512.000000 512.000000"
 preserveAspectRatio="xMidYMid meet">

<g transform="translate(0.000000,512.000000) scale(0.100000,-0.100000)"
fill="#000000" stroke="none">
<path d="M2347 5069 c-872 -72 -1659 -609 -2042 -1393 -157 -321 -232 -602
-257 -960 -41 -594 134 -1184 496 -1671 96 -129 325 -366 441 -456 400 -312
818 -481 1322 -534 610 -65 1259 120 1768 504 485 366 828 903 950 1491 145
692 -14 1425 -434 2000 -124 171 -289 342 -461 481 -188 151 -506 327 -729
404 -343 118 -700 163 -1054 134z m563 -314 c227 -38 416 -99 625 -200 676
-327 1135 -957 1241 -1704 22 -152 22 -428 0 -582 -47 -338 -167 -653 -352
-930 -224 -336 -519 -594 -887 -775 -334 -164 -663 -233 -1056 -221 -340 10
-610 78 -919 229 -223 110 -411 248 -598 439 -405 416 -624 958 -624 1546 0
775 397 1487 1056 1895 278 172 584 275 954 322 79 10 468 -3 560 -19z"/>
<path d="M1809 3348 c-20 -11 -46 -38 -58 -58 -21 -37 -21 -44 -21 -730 0
-687 0 -693 21 -730 12 -21 38 -47 59 -59 37 -21 43 -21 750 -21 l713 0 42 25
c79 46 75 6 75 784 0 660 -1 694 -19 729 -11 22 -35 46 -59 60 l-40 22 -713 0
c-708 0 -714 -1 -750 -22z"/>
</g>
</svg>
