<?xml version="1.0" standalone="no"?>
<!DOCTYPE svg PUBLIC "-//W3C//DTD SVG 20010904//EN"
 "http://www.w3.org/TR/2001/REC-SVG-20010904/DTD/svg10.dtd">
<svg version="1.0" xmlns="http://www.w3.org/2000/svg"
 width="802.000000pt" height="802.000000pt" viewBox="0 0 802.000000 802.000000"
 preserveAspectRatio="xMidYMid meet">

<g transform="translate(0.000000,802.000000) scale(0.100000,-0.100000)"
fill="#000000" stroke="none">
<path d="M918 8008 c-122 -9 -237 -41 -353 -98 -264 -130 -447 -356 -526 -650
-19 -71 -23 -110 -23 -240 -1 -176 19 -276 80 -408 78 -170 43 -133 1300
-1392 657 -657 1194 -1200 1194 -1206 0 -5 -515 -522 -1145 -1148 -630 -625
-1174 -1174 -1211 -1219 -81 -101 -165 -269 -196 -392 -32 -128 -32 -350 0
-479 24 -97 90 -245 143 -323 47 -69 174 -198 245 -249 82 -59 229 -127 334
-156 74 -20 107 -23 255 -22 155 1 178 3 260 28 109 33 212 80 297 137 42 28
455 433 1250 1228 l1188 1186 1182 -1182 c1081 -1079 1191 -1187 1278 -1242
463 -298 1080 -170 1377 285 109 169 153 306 160 510 9 235 -37 401 -165 599
-34 54 -324 350 -1231 1258 l-1186 1187 1182 1178 c1071 1066 1188 1186 1242
1269 60 94 104 194 137 313 15 51 19 101 19 235 0 147 -3 181 -23 255 -48 174
-135 324 -261 451 -213 212 -483 310 -797 288 -159 -12 -330 -72 -475 -169
-43 -29 -448 -426 -1252 -1229 l-1187 -1186 -1188 1186 c-653 652 -1209 1202
-1237 1221 -186 132 -425 195 -667 176z m195 -503 c151 -32 74 39 1472 -1356
704 -702 1295 -1285 1314 -1294 19 -9 60 -20 93 -22 121 -11 19 -104 1438
1311 1378 1375 1313 1315 1451 1351 72 20 202 19 270 -1 184 -54 315 -194 354
-379 18 -87 18 -113 1 -197 -33 -153 51 -62 -1357 -1473 -964 -966 -1292
-1300 -1304 -1330 -9 -22 -17 -65 -17 -97 -2 -115 -65 -47 1313 -1423 693
-693 1275 -1280 1292 -1304 165 -240 69 -595 -196 -719 -151 -72 -331 -68
-469 11 -44 24 -356 329 -1341 1310 -868 862 -1297 1282 -1321 1292 -19 8 -59
15 -87 15 -119 0 -18 93 -1419 -1305 -1106 -1103 -1293 -1286 -1346 -1313
-347 -180 -744 51 -744 432 0 89 17 160 57 241 20 39 300 325 1313 1340 l1289
1290 16 58 c19 67 14 131 -15 187 -10 19 -586 602 -1280 1295 -821 819 -1276
1281 -1301 1319 -124 189 -102 448 53 612 128 136 291 187 471 149z"/>
</g>
</svg>
