<?xml version="1.0" standalone="no"?>
<!DOCTYPE svg PUBLIC "-//W3C//DTD SVG 20010904//EN"
 "http://www.w3.org/TR/2001/REC-SVG-20010904/DTD/svg10.dtd">
<svg version="1.0" xmlns="http://www.w3.org/2000/svg"
 width="512.000000pt" height="512.000000pt" viewBox="0 0 512.000000 512.000000"
 preserveAspectRatio="xMidYMid meet">

<g transform="translate(0.000000,512.000000) scale(0.100000,-0.100000)"
fill="#000000" stroke="none">
<path d="M1615 4786 c-41 -18 -83 -69 -90 -109 -3 -18 -4 -982 -3 -2144 l3
-2112 21 -27 c44 -60 67 -69 174 -69 107 0 130 9 174 69 l21 27 3 2125 c2
2348 8 2166 -64 2220 -34 26 -46 29 -123 32 -57 1 -96 -3 -116 -12z"/>
<path d="M3295 4786 c-41 -18 -83 -69 -90 -109 -3 -18 -4 -982 -3 -2144 l3
-2112 21 -27 c44 -60 67 -69 174 -69 107 0 130 9 174 69 l21 27 0 2139 0 2139
-21 27 c-42 57 -69 69 -162 72 -58 1 -97 -2 -117 -12z"/>
</g>
</svg>
