<?xml version="1.0" standalone="no"?>
<!DOCTYPE svg PUBLIC "-//W3C//DTD SVG 20010904//EN"
 "http://www.w3.org/TR/2001/REC-SVG-20010904/DTD/svg10.dtd">
<svg version="1.0" xmlns="http://www.w3.org/2000/svg"
 width="512.000000pt" height="512.000000pt" viewBox="0 0 512.000000 512.000000"
 preserveAspectRatio="xMidYMid meet">

<g transform="translate(0.000000,512.000000) scale(0.100000,-0.100000)"
fill="#000000" stroke="none">
<path d="M676 4771 c-15 -10 -37 -32 -47 -47 -18 -28 -19 -89 -19 -2162 0
-2354 -5 -2169 63 -2211 22 -13 51 -21 81 -21 52 0 -24 -42 1026 565 753 435
1756 1014 1995 1152 765 440 735 419 735 513 0 87 -6 92 -445 346 -220 127
-562 324 -760 439 -198 114 -610 352 -915 528 -305 176 -769 443 -1030 594
-261 151 -494 286 -517 299 -52 30 -125 32 -167 5z m384 -474 c161 -93 279
-160 1615 -932 512 -295 1032 -596 1158 -668 125 -72 227 -134 227 -137 0 -3
-336 -199 -747 -437 -412 -237 -1119 -645 -1572 -907 -454 -262 -829 -476
-833 -476 -4 0 -8 819 -8 1820 0 1001 3 1820 8 1820 4 0 72 -37 152 -83z"/>
</g>
</svg>
